<?xml version="1.0" standalone="no"?>
<!DOCTYPE svg PUBLIC "-//W3C//DTD SVG 20010904//EN"
 "http://www.w3.org/TR/2001/REC-SVG-20010904/DTD/svg10.dtd">
<svg version="1.0" xmlns="http://www.w3.org/2000/svg"
 width="512.000000pt" height="512.000000pt" viewBox="0 0 512.000000 512.000000"
 preserveAspectRatio="xMidYMid meet">
<metadata>
Created by potrace 1.11, written by Peter Selinger 2001-2013
</metadata>
<g transform="translate(0.000000,512.000000) scale(0.100000,-0.100000)"
fill="#000000" stroke="none">
<path d="M4090 3830 c-111 -34 -176 -88 -219 -179 -92 -201 52 -439 271 -447
197 -7 342 136 334 329 -3 73 -11 99 -42 148 -13 20 -21 40 -18 43 2 3 1 4 -2
2 -3 -2 -17 7 -32 21 -58 55 -102 75 -188 89 -21 3 -41 7 -44 9 -3 1 -30 -6
-60 -15z"/>
<path d="M2769 2537 c-32 -13 -68 -33 -82 -44 -150 -118 -166 -335 -34 -475
14 -15 23 -29 21 -32 -2 -3 -1 -4 2 -2 3 3 23 -5 43 -18 49 -31 75 -39 148
-42 193 -8 336 137 329 334 -4 103 -61 197 -156 257 -74 47 -190 56 -271 22z"/>
<path d="M4075 2547 c-107 -32 -196 -118 -223 -217 -2 -8 -5 -47 -6 -86 -9
-234 233 -390 449 -290 88 40 168 145 180 233 2 16 4 30 5 33 3 6 3 7 -4 56
-18 120 -72 196 -178 250 -57 29 -164 39 -223 21z"/>
<path d="M1487 1255 c-127 -51 -200 -156 -200 -285 0 -87 6 -149 15 -144 4 3
14 -8 22 -24 26 -50 85 -103 148 -131 51 -23 72 -27 132 -25 104 3 147 20 212
81 150 142 133 371 -37 497 -76 56 -200 69 -292 31z"/>
<path d="M2785 1263 c-140 -41 -227 -167 -221 -316 3 -73 11 -99 42 -148 13
-20 22 -38 21 -40 -1 -2 -1 -3 1 -3 2 1 15 -9 30 -23 162 -152 418 -104 511
96 113 247 -121 512 -384 434z"/>
<path d="M4075 1268 c-50 -13 -124 -63 -160 -106 -103 -123 -93 -310 21 -425
128 -129 332 -125 458 7 16 17 34 30 39 28 4 -1 6 2 2 8 -4 6 -2 16 3 23 34
44 48 173 27 252 -11 40 -50 102 -89 138 -71 67 -206 101 -301 75z"/>
</g>
</svg>
